<svg width="100%" height="100%" xmlns="http://www.w3.org/2000/svg" xmlns:xlink="http://www.w3.org/1999/xlink" viewBox="751 971.63 1500 1056.74"> <path fill-rule="evenodd" fill="#4caf50" fill-opacity="1" d="M 2100.230469 1917.441406 L 2157.839844 2017.203125 Z M 1145.878906 1494.621094 L 1116.871094 1544.859375 Z M 1081.980469 1605.289062 L 856.410156 1995.988281 Z M 844.160156 2017.210938 L 837.722656 2028.367188 Z M 1798.429688 1485.320312 L 1523.730469 1009.519531 L 1523.730469 2000.378906 L 2095.851562 2000.378906 L 1799.140625 1486.449219 Z M 2112.378906 1449.460938 L 2025.871094 1535.96875 C 2017 1544.839844 2017 1559.230469 2025.871094 1568.101562 C 2034.738281 1576.96875 2049.128906 1576.96875 2058 1568.101562 L 2112.378906 1513.730469 L 2112.378906 1571.5 L 2025.871094 1658 C 2017 1666.871094 2017 1681.269531 2025.871094 1690.140625 C 2034.738281 1699.011719 2049.128906 1699.011719 2058 1690.140625 L 2112.378906 1635.769531 L 2112.378906 1938.46875 L 2157.839844 2017.203125 L 2157.839844 1635.769531 L 2212.210938 1690.140625 C 2221.078125 1699.011719 2235.46875 1699.011719 2244.351562 1690.140625 C 2253.21875 1681.269531 2253.21875 1666.871094 2244.351562 1658 L 2157.839844 1571.5 L 2157.839844 1513.730469 L 2212.210938 1568.101562 C 2221.078125 1576.96875 2235.46875 1576.96875 2244.351562 1568.101562 C 2253.21875 1559.230469 2253.21875 1544.839844 2244.351562 1535.96875 L 2157.839844 1449.460938 L 2157.839844 1391.691406 L 2212.210938 1446.058594 C 2221.078125 1454.929688 2235.46875 1454.929688 2244.351562 1446.058594 C 2253.21875 1437.191406 2253.21875 1422.800781 2244.351562 1413.929688 L 2149.648438 1319.539062 L 2147.5 1317.78125 L 2146.699219 1317.28125 L 2146.570312 1317.199219 L 2146.25 1317.019531 L 2146.128906 1316.949219 C 2142.859375 1315.140625 2139.109375 1314.101562 2135.109375 1314.101562 C 2131.109375 1314.101562 2127.351562 1315.140625 2124.089844 1316.949219 L 2123.96875 1317.019531 L 2123.648438 1317.199219 L 2123.511719 1317.28125 L 2122.71875 1317.78125 L 2122.46875 1317.941406 C 2121.078125 1318.871094 2119.800781 1319.941406 2118.648438 1321.148438 L 2025.871094 1413.929688 C 2017 1422.800781 2017 1437.191406 2025.871094 1446.058594 C 2034.738281 1454.929688 2049.128906 1454.929688 2058 1446.058594 L 2112.378906 1391.691406 Z M 1081.980469 1293.300781 L 1081.980469 1605.289062 L 1116.871094 1544.859375 L 1127.441406 1526.550781 L 1127.441406 1293.300781 L 1181.820312 1347.671875 C 1190.691406 1356.539062 1205.078125 1356.539062 1213.949219 1347.671875 C 1222.820312 1338.789062 1222.820312 1324.398438 1213.949219 1315.53125 L 1127.441406 1229.03125 L 1127.441406 1171.261719 L 1181.820312 1225.628906 C 1190.691406 1234.5 1205.078125 1234.5 1213.949219 1225.628906 C 1222.820312 1216.761719 1222.820312 1202.359375 1213.949219 1193.488281 L 1127.441406 1106.988281 L 1127.441406 1049.230469 L 1181.820312 1103.589844 C 1190.691406 1112.46875 1205.078125 1112.46875 1213.949219 1103.589844 C 1222.820312 1094.71875 1222.820312 1080.328125 1213.949219 1071.460938 L 1119.261719 977.078125 L 1117.101562 975.308594 L 1116.308594 974.820312 L 1116.171875 974.730469 L 1115.851562 974.550781 L 1115.738281 974.488281 C 1112.46875 972.679688 1108.710938 971.628906 1104.710938 971.628906 C 1100.710938 971.628906 1096.960938 972.671875 1093.691406 974.488281 L 1093.570312 974.550781 L 1093.25 974.730469 L 1093.121094 974.820312 L 1092.320312 975.308594 L 1092.070312 975.46875 C 1090.679688 976.398438 1089.410156 977.480469 1088.261719 978.679688 L 995.476562 1071.460938 C 986.605469 1080.328125 986.605469 1094.71875 995.476562 1103.589844 C 1004.351562 1112.46875 1018.738281 1112.46875 1027.609375 1103.589844 L 1081.980469 1049.230469 L 1081.980469 1106.988281 L 995.476562 1193.488281 C 986.605469 1202.359375 986.605469 1216.761719 995.476562 1225.628906 C 1004.351562 1234.5 1018.738281 1234.5 1027.609375 1225.628906 L 1081.980469 1171.261719 L 1081.980469 1229.03125 L 995.476562 1315.53125 C 986.605469 1324.398438 986.605469 1338.789062 995.476562 1347.671875 C 1004.351562 1356.539062 1018.738281 1356.539062 1027.609375 1347.671875 Z M 889.621094 1938.46875 L 889.621094 1635.769531 L 943.992188 1690.140625 C 952.863281 1699.011719 967.257812 1699.011719 976.128906 1690.140625 C 985 1681.269531 985 1666.871094 976.128906 1658 L 889.621094 1571.5 L 889.621094 1513.730469 L 943.992188 1568.101562 C 952.863281 1576.96875 967.257812 1576.96875 976.128906 1568.101562 C 985 1559.230469 985 1544.839844 976.128906 1535.96875 L 889.621094 1449.460938 L 889.621094 1391.691406 L 943.992188 1446.058594 C 952.863281 1454.929688 967.257812 1454.929688 976.128906 1446.058594 C 985 1437.191406 985 1422.800781 976.128906 1413.929688 L 881.4375 1319.539062 L 879.28125 1317.78125 L 878.488281 1317.28125 L 878.351562 1317.199219 L 878.03125 1317.019531 L 877.914062 1316.949219 C 874.648438 1315.140625 870.890625 1314.101562 866.890625 1314.101562 C 862.890625 1314.101562 859.132812 1315.140625 855.867188 1316.949219 L 855.753906 1317.019531 L 855.429688 1317.199219 L 855.292969 1317.28125 L 854.503906 1317.78125 L 854.25 1317.941406 C 852.859375 1318.871094 851.585938 1319.941406 850.4375 1321.148438 L 757.652344 1413.929688 C 748.78125 1422.800781 748.78125 1437.191406 757.652344 1446.058594 C 766.523438 1454.929688 780.914062 1454.929688 789.789062 1446.058594 L 844.160156 1391.691406 L 844.160156 1449.460938 L 757.652344 1535.96875 C 748.78125 1544.839844 748.78125 1559.230469 757.652344 1568.101562 C 766.523438 1576.96875 780.914062 1576.96875 789.789062 1568.101562 L 844.160156 1513.730469 L 844.160156 1571.5 L 757.652344 1658 C 748.78125 1666.871094 748.78125 1681.269531 757.652344 1690.140625 C 766.523438 1699.011719 780.914062 1699.011719 789.789062 1690.140625 L 844.160156 1635.769531 L 844.160156 2017.210938 L 856.410156 1995.988281 Z M 1170.878906 2000.378906 L 1478.269531 1467.96875 L 1478.269531 1009.519531 L 1203.570312 1485.320312 L 1203.53125 1485.289062 L 1125.390625 1620.628906 C 1124.789062 1621.949219 1124.070312 1623.191406 1123.238281 1624.351562 L 906.144531 2000.378906 Z M 1478.269531 2000.378906 L 1478.269531 1558.671875 L 1223.25 2000.378906 Z M 1478.269531 2000.378906 "/> </svg>